<svg width="300" height="300" viewBox="0 0 300 300" fill="none" xmlns="http://www.w3.org/2000/svg">
<rect width="300" height="300" rx="27" fill="#14B8A6" fill-opacity="0.2"/>
<g clip-path="url(#clip0_2_8)">
<path d="M150 131.1C153.69 131.1 157.297 132.192 160.368 134.238C163.439 136.284 165.836 139.193 167.257 142.598C168.678 146.004 169.059 149.753 168.354 153.375C167.648 156.997 165.887 160.329 163.292 162.952C160.697 165.575 157.383 167.372 153.769 168.116C150.155 168.86 146.402 168.518 142.981 167.133C139.561 165.749 136.627 163.383 134.548 160.334C132.47 157.285 131.339 153.69 131.3 150C131.287 147.531 131.76 145.084 132.693 142.798C133.625 140.512 134.999 138.432 136.736 136.677C138.472 134.922 140.537 133.526 142.813 132.569C145.089 131.612 147.531 131.113 150 131.1ZM103.7 230C110 233.8 123.7 228 139.7 213C134.352 206.923 129.313 200.582 124.6 194C116.534 193.097 108.523 191.761 100.6 190C95.5 211.4 97.4 226.1 103.7 230ZM110.8 172.6L107.9 167.5C106.77 170.309 105.801 173.18 105 176.1C107.7 176.7 110.7 177.2 113.8 177.7L110.8 172.6ZM176.2 165L184.3 150L176.2 135C173.2 129.7 170 125 167.1 120.3C161.7 120 156 120 150 120C144 120 138.3 120 132.9 120C130 124.7 126.8 129.4 123.8 134.7L115.7 150L123.8 165C126.8 170.3 130 175 132.9 179.7C138.3 179.7 144 179.7 150 179.7C156 179.7 161.7 179.7 167.1 179.7C170 175 173.2 170.3 176.2 165ZM150 97.8C148.1 100 146.1 102.3 144.1 105H155.9C153.9 102.3 151.9 100 150 97.8ZM150 202.2C151.9 200 153.9 197.7 155.9 195H144.1C146.1 197.7 148.1 200 150 202.2ZM196.2 70C190 66.2 176.2 72 160.3 87C165.648 93.077 170.687 99.4183 175.4 106C183.458 106.771 191.47 107.973 199.4 109.6C204.5 88.2 202.6 73.5 196.2 69.6M189.2 127L192.1 132.1C193.23 129.291 194.199 126.42 195 123.5C192.3 122.9 189.3 122.4 186.2 121.9L189.2 127ZM203.7 57C218.4 65.4 220 87.5 213.7 113.3C239.1 120.8 257.4 133.3 257.4 150.1C257.4 166.9 239.1 179.4 213.7 186.9C219.9 212.7 218.3 234.8 203.7 243.2C189.1 251.6 169.2 242 150 223.7C130.8 242 110.9 251.6 96.2 243.2C81.5 234.8 80 213.2 86.2 186.9C60.8 179.4 42.5 166.9 42.5 150.1C42.5 133.3 60.8 120.7 86.2 113.2C80 87.4 81.6 65.3 96.2 56.9C110.8 48.5 130.8 58.1 150 76.4C169.2 58.1 189.1 48.5 203.7 56.9M200.8 150C204.273 157.361 207.344 164.906 210 172.6C231 166.3 242.8 157.3 242.8 150C242.8 142.7 230.7 133.7 210 127.4C207.344 135.094 204.273 142.639 200.8 150ZM99.2 150C95.727 142.639 92.6558 135.094 90 127.4C69 133.7 57.2 142.7 57.2 150C57.2 157.3 69.3 166.3 90 172.6C92.6558 164.906 95.727 157.361 99.2 150ZM189.2 172.6L186.2 177.7C189.3 177.7 192.3 176.7 195 176.1C194.199 173.18 193.23 170.309 192.1 167.5L189.2 172.6ZM160 213C175.9 228 190 233.8 195.9 230C201.8 226.2 204.2 211.8 199.1 190C191.17 191.627 183.158 192.829 175.1 193.6C170.398 200.318 165.358 206.793 160 213ZM110.8 127.4L113.8 122.3C110.7 122.3 107.7 123.3 105 123.9C105.801 126.82 106.77 129.691 107.9 132.5L110.8 127.4ZM140 87C123.8 72 110 66.2 103.7 70C97.4 73.8 95.5 88.2 100.6 110C108.53 108.373 116.542 107.171 124.6 106.4C129.399 99.6749 134.539 93.1997 140 87Z" fill="#14B8A6"/>
</g>
<defs>
<clipPath id="clip0_2_8">
<rect width="240" height="240" fill="white" transform="translate(30 30)"/>
</clipPath>
</defs>
</svg>
