<svg width="300" height="300" viewBox="0 0 300 300" fill="none" xmlns="http://www.w3.org/2000/svg">
<rect width="300" height="300" rx="27" fill="#5261E8" fill-opacity="0.2"/>
<g clip-path="url(#clip0_4_24)">
<path d="M86.0701 81.5673C78.2283 81.5673 71.8503 87.884 71.8503 95.7258V173.322C72.374 177.176 72.3546 178.597 74.9762 184.599L85.1507 207.89C88.1168 214.681 89.6733 218.433 98.6963 218.433H251.007C263.997 218.433 271.025 205.676 254.44 195.816L222.813 176.999C218.267 174.864 216.071 172.407 216.071 167.805V95.7258C216.071 87.884 209.754 81.5673 201.912 81.5673H86.0701ZM89.6863 99.4646H197.744V168.725H89.6863V99.4646ZM106.907 105.839V111.254C104.066 111.438 101.881 112.323 100.315 113.844C98.7488 115.364 97.9608 117.4 97.9608 119.965C97.9608 122.375 98.684 124.298 100.158 125.772C101.632 127.231 103.882 128.234 106.907 128.832V136.445C105.602 136.429 104.237 136.167 102.748 135.66C101.274 135.153 99.7778 134.399 98.1962 133.463V139.505C99.7778 140.165 101.289 140.722 102.748 141.075C104.207 141.428 105.571 141.578 106.907 141.624V148.608H110.203V141.624C112.967 141.486 115.215 140.647 116.873 139.034C118.547 137.422 119.385 135.353 119.385 132.835C119.385 130.194 118.581 128.06 117.03 126.478C115.495 124.881 113.228 123.815 110.203 123.339V116.276C111.6 116.368 112.881 116.614 114.048 116.983C115.215 117.351 116.235 117.859 117.187 118.474V112.588C115.959 112.204 114.76 111.861 113.577 111.646C112.41 111.431 111.293 111.315 110.203 111.254V105.839H106.907ZM106.907 116.276V122.79C105.955 122.529 105.28 122.118 104.788 121.534C104.312 120.951 104.082 120.212 104.082 119.337C104.082 118.446 104.312 117.803 104.788 117.296C105.28 116.774 105.955 116.399 106.907 116.276ZM148.97 122.947C147.849 123.929 146.734 124.668 145.674 125.144C144.615 125.605 143.531 125.85 142.457 125.85C141.029 125.85 139.451 125.439 137.67 124.595L136.885 124.202C135.749 123.726 134.827 123.43 134.06 123.261C133.292 123.092 132.519 123.025 131.705 123.025C130.431 123.025 129.216 123.238 128.096 123.653C126.975 124.068 125.84 124.757 124.643 125.693V130.951C125.779 129.984 126.864 129.278 127.939 128.832C129.029 128.387 130.194 128.126 131.392 128.126C132.175 128.126 132.963 128.256 133.746 128.44C134.544 128.624 135.467 128.938 136.649 129.46C136.818 129.522 137.096 129.621 137.434 129.774C139.169 130.557 140.761 130.951 142.143 130.951C143.356 130.951 144.505 130.738 145.596 130.323C146.701 129.894 147.818 129.283 148.97 128.362V122.947ZM110.203 129.46C111.186 129.645 111.957 130.023 112.479 130.637C113.016 131.236 113.264 132.04 113.264 132.992C113.264 133.928 113.016 134.732 112.479 135.346C111.941 135.945 111.17 136.306 110.203 136.445V129.46Z" fill="#5261E8"/>
</g>
<defs>
<clipPath id="clip0_4_24">
<rect width="254" height="254" fill="white" transform="translate(23 23)"/>
</clipPath>
</defs>
</svg>
