<svg width="300" height="300" viewBox="0 0 300 300" fill="none" xmlns="http://www.w3.org/2000/svg">
<rect width="300" height="300" rx="27" fill="#DF4650" fill-opacity="0.2"/>
<g clip-path="url(#clip0_3_10)">
<path d="M150 224.083H150.106M109.964 104.459C115.684 87.8497 131.448 75.9167 150 75.9167C173.38 75.9167 192.333 94.87 192.333 118.25C192.333 135.781 181.677 150.823 166.489 157.252C158.649 160.571 154.729 162.23 153.357 163.512C151.724 165.038 151.414 165.506 150.646 167.604C150 169.366 150 172.083 150 177.517V192.333" stroke="#DF4650" stroke-width="20" stroke-linecap="round" stroke-linejoin="round"/>
</g>
<path d="M151.011 219.864C151.801 219.864 152.573 220.103 153.23 220.549C153.887 220.996 154.4 221.63 154.705 222.374C155.009 223.117 155.09 223.935 154.939 224.726C154.788 225.516 154.411 226.243 153.856 226.816C153.3 227.388 152.591 227.781 151.818 227.943C151.044 228.105 150.24 228.031 149.508 227.728C148.776 227.426 148.148 226.91 147.703 226.244C147.258 225.579 147.016 224.794 147.008 223.989C147.005 223.45 147.106 222.916 147.306 222.417C147.506 221.918 147.8 221.464 148.171 221.081C148.543 220.698 148.985 220.394 149.472 220.185C149.959 219.976 150.482 219.867 151.011 219.864ZM141.1 241.449C142.449 242.278 145.381 241.013 148.806 237.739C147.661 236.412 146.583 235.028 145.574 233.592C143.847 233.395 142.132 233.103 140.436 232.719C139.345 237.39 139.752 240.598 141.1 241.449ZM142.62 228.922L141.999 227.808C141.757 228.421 141.55 229.048 141.378 229.685C141.956 229.816 142.598 229.925 143.262 230.035L142.62 228.922ZM156.619 227.263L158.353 223.989L156.619 220.715C155.977 219.559 155.292 218.533 154.671 217.507C153.515 217.442 152.295 217.442 151.011 217.442C149.726 217.442 148.506 217.442 147.35 217.442C146.73 218.467 146.045 219.493 145.403 220.65L143.669 223.989L145.403 227.263C146.045 228.42 146.73 229.445 147.35 230.471C148.506 230.471 149.726 230.471 151.011 230.471C152.295 230.471 153.515 230.471 154.671 230.471C155.292 229.445 155.977 228.42 156.619 227.263ZM151.011 212.596C150.604 213.077 150.176 213.579 149.748 214.168H152.274C151.846 213.579 151.417 213.077 151.011 212.596ZM151.011 235.382C151.417 234.902 151.846 234.4 152.274 233.81H149.748C150.176 234.4 150.604 234.902 151.011 235.382ZM160.9 206.529C159.573 205.7 156.619 206.966 153.215 210.239C154.36 211.566 155.439 212.95 156.448 214.386C158.173 214.554 159.887 214.817 161.585 215.172C162.677 210.501 162.27 207.293 160.9 206.442M159.402 218.969L160.022 220.082C160.264 219.469 160.472 218.843 160.643 218.205C160.065 218.075 159.423 217.965 158.759 217.856L159.402 218.969ZM162.505 203.692C165.652 205.525 165.994 210.349 164.646 215.979C170.083 217.616 174 220.344 174 224.011C174 227.677 170.083 230.406 164.646 232.042C165.973 237.673 165.631 242.497 162.505 244.33C159.38 246.163 155.121 244.068 151.011 240.074C146.901 244.068 142.641 246.163 139.495 244.33C136.348 242.497 136.027 237.782 137.354 232.042C131.917 230.406 128 227.677 128 224.011C128 220.344 131.917 217.594 137.354 215.958C136.027 210.327 136.369 205.503 139.495 203.67C142.62 201.837 146.901 203.932 151.011 207.926C155.121 203.932 159.38 201.837 162.505 203.67M161.885 223.989C162.628 225.596 163.285 227.242 163.854 228.922C168.349 227.547 170.875 225.582 170.875 223.989C170.875 222.396 168.285 220.432 163.854 219.057C163.285 220.736 162.628 222.382 161.885 223.989ZM140.137 223.989C139.393 222.382 138.736 220.736 138.168 219.057C133.672 220.432 131.147 222.396 131.147 223.989C131.147 225.582 133.737 227.547 138.168 228.922C138.736 227.242 139.393 225.596 140.137 223.989ZM159.402 228.922L158.759 230.035C159.423 230.035 160.065 229.816 160.643 229.685C160.472 229.048 160.264 228.421 160.022 227.808L159.402 228.922ZM153.151 237.739C156.555 241.013 159.573 242.278 160.836 241.449C162.099 240.62 162.612 237.477 161.521 232.719C159.823 233.074 158.108 233.336 156.383 233.505C155.377 234.971 154.298 236.384 153.151 237.739ZM142.62 219.057L143.262 217.944C142.598 217.944 141.956 218.162 141.378 218.293C141.55 218.93 141.757 219.557 141.999 220.17L142.62 219.057ZM148.87 210.239C145.403 206.966 142.449 205.7 141.1 206.529C139.752 207.359 139.345 210.501 140.436 215.259C142.134 214.904 143.849 214.642 145.574 214.473C146.601 213.006 147.701 211.592 148.87 210.239Z" fill="#DF4650"/>
<defs>
<clipPath id="clip0_3_10">
<rect width="254" height="254" fill="white" transform="translate(23 23)"/>
</clipPath>
</defs>
</svg>
